<?xml version="1.0" encoding="UTF-8" standalone="no"?>
<!DOCTYPE svg PUBLIC "-//W3C//DTD SVG 1.1//EN" "http://www.w3.org/Graphics/SVG/1.1/DTD/svg11.dtd">
<svg width="100%" height="100%" viewBox="0 0 352 237" version="1.1" xmlns="http://www.w3.org/2000/svg" xmlns:xlink="http://www.w3.org/1999/xlink" xml:space="preserve" xmlns:serif="http://www.serif.com/" style="fill-rule:evenodd;clip-rule:evenodd;stroke-linejoin:round;stroke-miterlimit:2;">
    <g transform="matrix(1,0,0,1,-1305.460806,-1243.507721)">
        <g transform="matrix(-0,1.454047,-0.628667,-0,3367.218838,-612.028351)">
            <path d="M1276.118,3161.931L1291.253,3161.931L1291.253,3271.19L1313.472,3271.19L1313.472,3279.57L1276.118,3279.57L1276.118,3161.931Z" style="fill:rgb(231,76,29);fill-rule:nonzero;"/>
        </g>
        <g transform="matrix(0,1.454047,0.628667,-0,-404.600552,-612.028351)">
            <path d="M1276.118,3161.931L1291.253,3161.931L1291.253,3271.19L1356.447,3271.19L1356.447,3279.57L1276.118,3279.57L1276.118,3161.931Z" style="fill:rgb(41,49,51);fill-rule:nonzero;"/>
        </g>
        <g transform="matrix(-5.755189,0,0,0.628667,9129.63721,-696.181026)">
            <rect x="1298.39" y="3271.19" width="7.274" height="8.38" style="fill:rgb(41,49,51);"/>
        </g>
        <g transform="matrix(-13.383236,0,0,0.628667,18959.85959,-812.981973)">
            <rect x="1298.39" y="3271.19" width="8.413" height="8.38" style="fill:rgb(41,49,51);"/>
        </g>
        <g transform="matrix(11.793333,0,-0,-0.628667,-13926.629651,3536.867648)">
            <rect x="1297.848" y="3271.19" width="7.773" height="8.38" style="fill:rgb(231,76,29);"/>
        </g>
        <g transform="matrix(-0,-1.454047,-0.628667,0,3367.218838,3335.914026)">
            <path d="M1276.118,3161.931L1291.253,3161.931L1291.253,3271.19L1313.472,3271.19L1313.472,3279.57L1276.118,3279.57L1276.118,3161.931Z" style="fill:rgb(231,76,29);fill-rule:nonzero;"/>
        </g>
        <g transform="matrix(0,-1.454047,0.628667,0,-404.600552,3335.914026)">
            <path d="M1276.118,3161.931L1291.253,3161.931L1291.253,3271.19L1313.472,3271.19L1313.472,3279.57L1276.118,3279.57L1276.118,3161.931Z" style="fill:rgb(41,49,51);fill-rule:nonzero;"/>
        </g>
        <g transform="matrix(-0,-1.454047,-0.300921,0,2516.41947,3335.914026)">
            <rect x="1276.118" y="3161.931" width="15.135" height="106.79" style="fill:rgb(41,49,51);fill-rule:nonzero;"/>
        </g>
        <g transform="matrix(-0,-1.454047,-0.300921,0,2380.654868,3121.050807)">
            <rect x="1276.118" y="3161.931" width="15.135" height="106.79" style="fill:rgb(231,76,29);fill-rule:nonzero;"/>
        </g>
        <g transform="matrix(1.726796,0,0,1.726796,-991.216187,-1011.911035)">
            <g transform="matrix(1,0,-0,1,-396.591131,-1107.016865)">
                <g transform="matrix(1.295011,0,0,0.559907,125.201786,678.412816)">
                    <path d="M1276.118,3161.931L1310.455,3161.931L1310.455,3170.311L1291.253,3170.311L1289.967,3176.229C1289.967,3176.229 1291.253,3196.932 1291.253,3222.536C1291.253,3248.436 1289.959,3266.666 1289.959,3266.666L1291.253,3271.19L1310.455,3271.19L1310.455,3279.57L1276.118,3279.57L1274.743,3273.263C1274.743,3273.263 1276.891,3272.259 1276.891,3223.953C1276.891,3175.647 1274.786,3169.393 1274.786,3169.393L1276.118,3161.931Z" style="fill:rgb(41,49,51);"/>
                </g>
                <g transform="matrix(-0,-5.515924,2.725806,-0,-5101.057302,7379.91102)">
                    <path d="M881.275,2539.914L894.739,2539.914L894.739,2541.283C893.885,2541.544 893.248,2542.669 892.829,2544.658L888.768,2563.833L887.149,2563.833L882.967,2545.001C882.677,2543.696 882.407,2542.775 882.157,2542.237C881.907,2541.699 881.613,2541.381 881.275,2541.283L881.275,2539.914ZM889.156,2541.284C888.324,2541.286 887.358,2541.562 887.125,2542.066C886.883,2542.588 886.762,2543.207 886.762,2543.925C886.762,2544.349 886.81,2544.789 886.907,2545.245L889.252,2555.909L891.379,2545.148C891.476,2544.593 891.524,2544.104 891.524,2543.68C891.524,2542.93 891.391,2542.351 891.125,2541.944C890.862,2541.54 889.625,2541.284 889.156,2541.284Z" style="fill:rgb(41,49,51);"/>
                </g>
            </g>
        </g>
    </g>
</svg>
